<mxfile host="app.diagrams.net" modified="2023-06-08T11:41:20.452Z" agent="Mozilla/5.0 (Windows NT 10.0; Win64; x64) AppleWebKit/537.36 (KHTML, like Gecko) Chrome/114.0.0.0 Safari/537.36 Edg/114.0.1823.37" etag="pSQmnd-RQFaFkbWdRZqm" version="21.3.7" type="device">
  <diagram name="Page-1" id="NN8JCxpQYwnmutnGC4Ce">
    <mxGraphModel dx="350" dy="191" grid="1" gridSize="10" guides="1" tooltips="1" connect="1" arrows="1" fold="1" page="1" pageScale="1" pageWidth="850" pageHeight="1100" math="0" shadow="0">
      <root>
        <mxCell id="0" />
        <mxCell id="1" parent="0" />
        <mxCell id="gI5EXAUpA90Xy6miUrJ--2" value="User" style="shape=umlActor;verticalLabelPosition=top;verticalAlign=bottom;html=1;labelPosition=center;align=center;" vertex="1" parent="1">
          <mxGeometry x="55" y="30" width="30" height="60" as="geometry" />
        </mxCell>
        <mxCell id="gI5EXAUpA90Xy6miUrJ--10" style="edgeStyle=orthogonalEdgeStyle;rounded=0;orthogonalLoop=1;jettySize=auto;html=1;dashed=1;endArrow=none;endFill=0;" edge="1" parent="1" source="gI5EXAUpA90Xy6miUrJ--3">
          <mxGeometry relative="1" as="geometry">
            <mxPoint x="180" y="615" as="targetPoint" />
            <Array as="points">
              <mxPoint x="180" y="606" />
            </Array>
          </mxGeometry>
        </mxCell>
        <mxCell id="gI5EXAUpA90Xy6miUrJ--3" value="Repository Code Management (GitHub.com)" style="html=1;whiteSpace=wrap;" vertex="1" parent="1">
          <mxGeometry x="125" y="30" width="110" height="60" as="geometry" />
        </mxCell>
        <mxCell id="gI5EXAUpA90Xy6miUrJ--4" value="Acure DevOps CI" style="whiteSpace=wrap;html=1;" vertex="1" parent="1">
          <mxGeometry x="260" y="30" width="120" height="60" as="geometry" />
        </mxCell>
        <mxCell id="gI5EXAUpA90Xy6miUrJ--6" value="JMeter" style="whiteSpace=wrap;html=1;" vertex="1" parent="1">
          <mxGeometry x="420" y="30" width="120" height="60" as="geometry" />
        </mxCell>
        <mxCell id="gI5EXAUpA90Xy6miUrJ--8" value="Notification (Email)" style="whiteSpace=wrap;html=1;" vertex="1" parent="1">
          <mxGeometry x="720" y="30" width="120" height="60" as="geometry" />
        </mxCell>
        <mxCell id="gI5EXAUpA90Xy6miUrJ--9" value="Dashboard Report" style="whiteSpace=wrap;html=1;" vertex="1" parent="1">
          <mxGeometry x="570" y="30" width="120" height="60" as="geometry" />
        </mxCell>
        <mxCell id="gI5EXAUpA90Xy6miUrJ--11" style="edgeStyle=orthogonalEdgeStyle;rounded=0;orthogonalLoop=1;jettySize=auto;html=1;dashed=1;endArrow=none;endFill=0;" edge="1" parent="1">
          <mxGeometry relative="1" as="geometry">
            <mxPoint x="320.5" y="611" as="targetPoint" />
            <mxPoint x="320.5" y="90" as="sourcePoint" />
            <Array as="points">
              <mxPoint x="320" y="345" />
              <mxPoint x="320" y="345" />
            </Array>
          </mxGeometry>
        </mxCell>
        <mxCell id="gI5EXAUpA90Xy6miUrJ--12" style="edgeStyle=orthogonalEdgeStyle;rounded=0;orthogonalLoop=1;jettySize=auto;html=1;dashed=1;endArrow=none;endFill=0;" edge="1" parent="1">
          <mxGeometry relative="1" as="geometry">
            <mxPoint x="479.5" y="611" as="targetPoint" />
            <mxPoint x="479.5" y="90" as="sourcePoint" />
          </mxGeometry>
        </mxCell>
        <mxCell id="gI5EXAUpA90Xy6miUrJ--13" style="edgeStyle=orthogonalEdgeStyle;rounded=0;orthogonalLoop=1;jettySize=auto;html=1;dashed=1;endArrow=none;endFill=0;" edge="1" parent="1">
          <mxGeometry relative="1" as="geometry">
            <mxPoint x="629.5" y="611" as="targetPoint" />
            <mxPoint x="629.5" y="90" as="sourcePoint" />
          </mxGeometry>
        </mxCell>
        <mxCell id="gI5EXAUpA90Xy6miUrJ--14" style="edgeStyle=orthogonalEdgeStyle;rounded=0;orthogonalLoop=1;jettySize=auto;html=1;dashed=1;endArrow=none;endFill=0;" edge="1" parent="1">
          <mxGeometry relative="1" as="geometry">
            <mxPoint x="780" y="611" as="targetPoint" />
            <mxPoint x="780" y="90" as="sourcePoint" />
          </mxGeometry>
        </mxCell>
        <mxCell id="gI5EXAUpA90Xy6miUrJ--15" style="edgeStyle=orthogonalEdgeStyle;rounded=0;orthogonalLoop=1;jettySize=auto;html=1;dashed=1;endArrow=none;endFill=0;" edge="1" parent="1">
          <mxGeometry relative="1" as="geometry">
            <mxPoint x="70" y="605" as="targetPoint" />
            <mxPoint x="70" y="105" as="sourcePoint" />
            <Array as="points">
              <mxPoint x="70" y="105" />
            </Array>
          </mxGeometry>
        </mxCell>
        <mxCell id="gI5EXAUpA90Xy6miUrJ--18" value="Push Commit" style="html=1;verticalAlign=bottom;startArrow=oval;startFill=1;endArrow=block;startSize=8;edgeStyle=elbowEdgeStyle;elbow=vertical;curved=0;rounded=0;" edge="1" parent="1">
          <mxGeometry width="60" relative="1" as="geometry">
            <mxPoint x="70" y="145" as="sourcePoint" />
            <mxPoint x="180" y="145" as="targetPoint" />
          </mxGeometry>
        </mxCell>
        <mxCell id="gI5EXAUpA90Xy6miUrJ--19" value="Trigger Running CI" style="html=1;verticalAlign=bottom;endArrow=block;edgeStyle=elbowEdgeStyle;elbow=vertical;curved=0;rounded=0;" edge="1" parent="1">
          <mxGeometry width="80" relative="1" as="geometry">
            <mxPoint x="180" y="175" as="sourcePoint" />
            <mxPoint x="320" y="175" as="targetPoint" />
          </mxGeometry>
        </mxCell>
        <mxCell id="gI5EXAUpA90Xy6miUrJ--27" value="" style="html=1;points=[];perimeter=orthogonalPerimeter;outlineConnect=0;targetShapes=umlLifeline;portConstraint=eastwest;newEdgeStyle={&quot;edgeStyle&quot;:&quot;elbowEdgeStyle&quot;,&quot;elbow&quot;:&quot;vertical&quot;,&quot;curved&quot;:0,&quot;rounded&quot;:0};" vertex="1" parent="1">
          <mxGeometry x="175" y="200" width="10" height="75" as="geometry" />
        </mxCell>
        <mxCell id="gI5EXAUpA90Xy6miUrJ--28" value="check new commit" style="html=1;verticalAlign=bottom;endArrow=block;edgeStyle=elbowEdgeStyle;elbow=vertical;curved=0;rounded=0;" edge="1" target="gI5EXAUpA90Xy6miUrJ--27" parent="1">
          <mxGeometry relative="1" as="geometry">
            <mxPoint x="320" y="215" as="sourcePoint" />
            <Array as="points">
              <mxPoint x="240" y="215" />
            </Array>
          </mxGeometry>
        </mxCell>
        <mxCell id="gI5EXAUpA90Xy6miUrJ--29" value="send New commit" style="html=1;verticalAlign=bottom;endArrow=open;dashed=1;endSize=8;edgeStyle=elbowEdgeStyle;elbow=vertical;curved=0;rounded=0;" edge="1" source="gI5EXAUpA90Xy6miUrJ--27" parent="1">
          <mxGeometry relative="1" as="geometry">
            <mxPoint x="320" y="265" as="targetPoint" />
          </mxGeometry>
        </mxCell>
        <mxCell id="gI5EXAUpA90Xy6miUrJ--33" value="" style="html=1;points=[];perimeter=orthogonalPerimeter;outlineConnect=0;targetShapes=umlLifeline;portConstraint=eastwest;newEdgeStyle={&quot;edgeStyle&quot;:&quot;elbowEdgeStyle&quot;,&quot;elbow&quot;:&quot;vertical&quot;,&quot;curved&quot;:0,&quot;rounded&quot;:0};" vertex="1" parent="1">
          <mxGeometry x="475" y="295" width="10" height="50" as="geometry" />
        </mxCell>
        <mxCell id="gI5EXAUpA90Xy6miUrJ--34" value="Trigger Running Test" style="html=1;verticalAlign=bottom;endArrow=block;edgeStyle=elbowEdgeStyle;elbow=vertical;curved=0;rounded=0;" edge="1" target="gI5EXAUpA90Xy6miUrJ--33" parent="1">
          <mxGeometry relative="1" as="geometry">
            <mxPoint x="321" y="305" as="sourcePoint" />
          </mxGeometry>
        </mxCell>
        <mxCell id="gI5EXAUpA90Xy6miUrJ--35" value="Send Test Result" style="html=1;verticalAlign=bottom;endArrow=open;dashed=1;endSize=8;edgeStyle=elbowEdgeStyle;elbow=vertical;curved=0;rounded=0;" edge="1" source="gI5EXAUpA90Xy6miUrJ--33" parent="1">
          <mxGeometry relative="1" as="geometry">
            <mxPoint x="630" y="335" as="targetPoint" />
            <Array as="points">
              <mxPoint x="600" y="335" />
            </Array>
          </mxGeometry>
        </mxCell>
        <mxCell id="gI5EXAUpA90Xy6miUrJ--36" value="" style="html=1;points=[];perimeter=orthogonalPerimeter;outlineConnect=0;targetShapes=umlLifeline;portConstraint=eastwest;newEdgeStyle={&quot;edgeStyle&quot;:&quot;elbowEdgeStyle&quot;,&quot;elbow&quot;:&quot;vertical&quot;,&quot;curved&quot;:0,&quot;rounded&quot;:0};" vertex="1" parent="1">
          <mxGeometry x="475" y="375" width="10" height="80" as="geometry" />
        </mxCell>
        <mxCell id="gI5EXAUpA90Xy6miUrJ--37" value="Generate Dashboard Report" style="html=1;verticalAlign=bottom;endArrow=block;edgeStyle=elbowEdgeStyle;elbow=vertical;curved=0;rounded=0;" edge="1" target="gI5EXAUpA90Xy6miUrJ--36" parent="1">
          <mxGeometry x="0.0566" relative="1" as="geometry">
            <mxPoint x="321" y="375" as="sourcePoint" />
            <Array as="points">
              <mxPoint x="420" y="390" />
              <mxPoint x="420" y="380" />
            </Array>
            <mxPoint as="offset" />
          </mxGeometry>
        </mxCell>
        <mxCell id="gI5EXAUpA90Xy6miUrJ--38" value="Get Dashboard Report" style="html=1;verticalAlign=bottom;endArrow=open;dashed=1;endSize=8;edgeStyle=elbowEdgeStyle;elbow=vertical;curved=0;rounded=0;" edge="1" source="gI5EXAUpA90Xy6miUrJ--36" parent="1">
          <mxGeometry relative="1" as="geometry">
            <mxPoint x="321" y="450" as="targetPoint" />
          </mxGeometry>
        </mxCell>
        <mxCell id="gI5EXAUpA90Xy6miUrJ--39" value="" style="html=1;points=[];perimeter=orthogonalPerimeter;outlineConnect=0;targetShapes=umlLifeline;portConstraint=eastwest;newEdgeStyle={&quot;edgeStyle&quot;:&quot;elbowEdgeStyle&quot;,&quot;elbow&quot;:&quot;vertical&quot;,&quot;curved&quot;:0,&quot;rounded&quot;:0};" vertex="1" parent="1">
          <mxGeometry x="775" y="470" width="10" height="65" as="geometry" />
        </mxCell>
        <mxCell id="gI5EXAUpA90Xy6miUrJ--40" value="Push API Send Notification" style="html=1;verticalAlign=bottom;endArrow=block;edgeStyle=elbowEdgeStyle;elbow=vertical;curved=0;rounded=0;" edge="1" target="gI5EXAUpA90Xy6miUrJ--39" parent="1">
          <mxGeometry x="0.0196" relative="1" as="geometry">
            <mxPoint x="321" y="475" as="sourcePoint" />
            <Array as="points">
              <mxPoint x="548" y="480" />
            </Array>
            <mxPoint as="offset" />
          </mxGeometry>
        </mxCell>
        <mxCell id="gI5EXAUpA90Xy6miUrJ--41" value="Send Notification Test Report" style="html=1;verticalAlign=bottom;endArrow=open;dashed=1;endSize=8;edgeStyle=elbowEdgeStyle;elbow=vertical;curved=0;rounded=0;" edge="1" source="gI5EXAUpA90Xy6miUrJ--39" parent="1">
          <mxGeometry x="0.0638" y="-5" relative="1" as="geometry">
            <mxPoint x="70" y="525" as="targetPoint" />
            <mxPoint as="offset" />
          </mxGeometry>
        </mxCell>
        <mxCell id="gI5EXAUpA90Xy6miUrJ--44" value="Open Dashboard report" style="html=1;verticalAlign=bottom;startArrow=oval;startFill=1;endArrow=block;startSize=8;edgeStyle=elbowEdgeStyle;elbow=vertical;curved=0;rounded=0;" edge="1" parent="1">
          <mxGeometry x="0.1429" width="60" relative="1" as="geometry">
            <mxPoint x="70" y="570" as="sourcePoint" />
            <mxPoint x="630" y="570" as="targetPoint" />
            <mxPoint as="offset" />
          </mxGeometry>
        </mxCell>
      </root>
    </mxGraphModel>
  </diagram>
</mxfile>
